<svg width="171" height="221" viewBox="0 0 171 221" fill="none" xmlns="http://www.w3.org/2000/svg">
<path d="M34.8586 91.9257C56.5225 67.4032 53.6274 45.5761 48.0782 32.1777C46.5542 28.4979 50.7959 23.0594 54.6002 24.4784C63.7934 27.9074 75.0263 34.2134 79.996 46.8553C83.1623 34.8939 82.5759 17.866 79.6364 6.86651C78.5915 2.95658 81.6974 -0.662929 85.5238 0.896957C100.653 7.06455 121.536 20.5828 128.211 59.9517C133.822 93.0471 97.3185 139.48 78.3507 151.977C77.4392 152.578 76.3201 152.725 75.2476 152.485C56.7074 148.336 22.7685 146.833 23.1206 171.861C27.6471 193.199 41.1319 209.014 58.6118 217.649C58.847 217.766 59.1085 217.861 59.3617 217.933C67.3384 220.204 57.6738 221.178 53.9609 220.063C53.5271 219.933 53.0845 219.792 52.6353 219.729C14.7094 214.409 2.70506 179.906 1.00555 160.87C1.00555 154.375 4.49345 126.298 34.8586 91.9257Z" fill="url(#paint0_linear_5_7)"/>
<path d="M98.4614 138.388C81.5439 159.164 49.6287 171.995 32.8492 172.275C30.194 172.319 27.8253 174.344 28.4801 176.85C32.5999 192.623 52.3807 222.859 85.1253 219.822C211.896 225.319 165.957 101.174 146.367 56.2452C144.678 52.3699 137.723 53.3457 136.941 57.4865C130.741 90.3128 118.789 113.423 98.4614 138.388Z" fill="url(#paint1_linear_5_7)"/>
<path d="M12.1718 72.435C15.6572 89.5761 2.68632 123.431 1.00557 134.891C0.49265 137.888 0.697794 142.684 3.57018 135.89C7.16065 127.397 18.958 105.415 25.1131 98.92C28.2821 95.2454 34.7275 87.627 37.8899 83.4159C38.5655 82.5162 38.632 81.3061 38.0564 80.3393C31.942 70.0699 23.966 66.2346 17.2295 64.8022C14.3078 64.181 11.5766 69.5079 12.1718 72.435Z" fill="url(#paint2_linear_5_7)"/>
<path d="M83.9378 146.378H69.9392C69.6835 144.567 69.1615 142.959 68.3731 141.552C67.5848 140.125 66.5727 138.91 65.3369 137.909C64.1011 136.908 62.6736 136.141 61.0542 135.608C59.4562 135.075 57.7197 134.809 55.8447 134.809C52.4569 134.809 49.5059 135.65 46.9917 137.334C44.4775 138.996 42.528 141.425 41.143 144.621C39.7581 147.795 39.0656 151.652 39.0656 156.19C39.0656 160.856 39.7581 164.777 41.143 167.952C42.5493 171.126 44.5095 173.523 47.0237 175.143C49.5379 176.762 52.4463 177.572 55.7488 177.572C57.6025 177.572 59.3177 177.327 60.8944 176.837C62.4924 176.347 63.9093 175.633 65.1451 174.695C66.3809 173.736 67.4037 172.575 68.2133 171.212C69.0443 169.848 69.6196 168.293 69.9392 166.545L83.9378 166.609C83.5755 169.614 82.67 172.511 81.2211 175.302C79.7936 178.072 77.8653 180.555 75.4363 182.749C73.0287 184.922 70.1522 186.648 66.8071 187.927C63.4832 189.184 59.7226 189.812 55.5251 189.812C49.687 189.812 44.4669 188.491 39.8646 185.849C35.2836 183.207 31.6615 179.383 28.9981 174.376C26.3561 169.369 25.0351 163.307 25.0351 156.19C25.0351 149.052 26.3774 142.98 29.062 137.973C31.7467 132.966 35.3902 129.152 39.9924 126.531C44.5947 123.889 49.7723 122.568 55.5251 122.568C59.3177 122.568 62.8334 123.101 66.072 124.166C69.3319 125.231 72.219 126.787 74.7332 128.832C77.2474 130.856 79.2929 133.339 80.8696 136.279C82.4676 139.219 83.4903 142.586 83.9378 146.378ZM129.369 142.288C129.114 139.709 128.016 137.707 126.077 136.279C124.138 134.851 121.507 134.138 118.183 134.138C115.925 134.138 114.018 134.457 112.462 135.097C110.907 135.714 109.714 136.577 108.883 137.685C108.073 138.793 107.668 140.05 107.668 141.457C107.626 142.628 107.871 143.651 108.403 144.525C108.957 145.398 109.714 146.155 110.672 146.794C111.631 147.412 112.739 147.955 113.996 148.424C115.253 148.871 116.596 149.255 118.023 149.574L123.904 150.981C126.759 151.62 129.38 152.472 131.766 153.538C134.153 154.603 136.219 155.913 137.967 157.469C139.714 159.024 141.067 160.856 142.025 162.966C143.006 165.075 143.506 167.494 143.528 170.221C143.506 174.226 142.484 177.699 140.459 180.64C138.457 183.559 135.559 185.828 131.766 187.447C127.995 189.045 123.446 189.844 118.119 189.844C112.835 189.844 108.233 189.035 104.312 187.415C100.413 185.796 97.3664 183.399 95.1718 180.224C92.9985 177.028 91.8586 173.076 91.752 168.367H105.143C105.293 170.562 105.921 172.394 107.029 173.864C108.158 175.313 109.66 176.41 111.535 177.156C113.432 177.881 115.573 178.243 117.959 178.243C120.303 178.243 122.338 177.902 124.064 177.22C125.811 176.538 127.164 175.59 128.123 174.376C129.082 173.161 129.561 171.766 129.561 170.189C129.561 168.719 129.124 167.483 128.251 166.481C127.398 165.48 126.141 164.628 124.479 163.925C122.839 163.222 120.825 162.582 118.439 162.007L111.312 160.217C105.793 158.875 101.436 156.776 98.24 153.921C95.0439 151.066 93.4566 147.22 93.4779 142.383C93.4566 138.42 94.5113 134.958 96.6419 131.996C98.7939 129.035 101.745 126.723 105.495 125.061C109.245 123.399 113.506 122.568 118.279 122.568C123.137 122.568 127.377 123.399 130.999 125.061C134.643 126.723 137.476 129.035 139.501 131.996C141.525 134.958 142.569 138.388 142.633 142.288H129.369Z" fill="white"/>
<path d="M83.9378 146.378V147.378H85.0627L84.9309 146.261L83.9378 146.378ZM69.9392 146.378L68.949 146.518L69.0704 147.378H69.9392V146.378ZM68.3731 141.552L67.4977 142.036L67.5008 142.041L68.3731 141.552ZM65.3369 137.909L64.7073 138.686L64.7073 138.686L65.3369 137.909ZM61.0542 135.608L60.738 136.557L60.7418 136.558L61.0542 135.608ZM46.9917 137.334L47.5432 138.168L47.5481 138.165L46.9917 137.334ZM41.143 144.621L42.0596 145.021L42.0606 145.018L41.143 144.621ZM41.143 167.952L40.2264 168.351L40.2287 168.357L41.143 167.952ZM47.0237 175.143L46.4822 175.983L46.4822 175.983L47.0237 175.143ZM60.8944 176.837L60.6012 175.88L60.5976 175.882L60.8944 176.837ZM65.1451 174.695L65.7496 175.492L65.7581 175.485L65.1451 174.695ZM68.2133 171.212L67.3593 170.691L67.3535 170.701L68.2133 171.212ZM69.9392 166.545L69.9437 165.545L69.1062 165.542L68.9555 166.365L69.9392 166.545ZM83.9378 166.609L84.9306 166.729L85.0649 165.614L83.9423 165.609L83.9378 166.609ZM81.2211 175.302L80.3336 174.842L80.3322 174.844L81.2211 175.302ZM75.4363 182.749L76.1064 183.492L76.1067 183.491L75.4363 182.749ZM66.8071 187.927L67.1608 188.862L67.1641 188.861L66.8071 187.927ZM39.8646 185.849L39.365 186.716L39.3667 186.717L39.8646 185.849ZM28.9981 174.376L28.1137 174.842L28.1153 174.845L28.9981 174.376ZM29.062 137.973L29.9434 138.445L29.9434 138.445L29.062 137.973ZM39.9924 126.531L40.4873 127.4L40.4903 127.398L39.9924 126.531ZM66.072 124.166L65.7595 125.116L65.7614 125.117L66.072 124.166ZM74.7332 128.832L74.1021 129.608L74.1061 129.611L74.7332 128.832ZM80.8696 136.279L79.9883 136.752L79.991 136.757L80.8696 136.279ZM83.9378 145.378H69.9392V147.378H83.9378V145.378ZM70.9294 146.239C70.6587 144.321 70.1019 142.591 69.2454 141.063L67.5008 142.041C68.221 143.326 68.7083 144.814 68.949 146.518L70.9294 146.239ZM69.2485 141.069C68.3995 139.532 67.3049 138.217 65.9665 137.132L64.7073 138.686C65.8405 139.604 66.77 140.718 67.4977 142.036L69.2485 141.069ZM65.9665 137.132C64.6298 136.049 63.093 135.226 61.3667 134.658L60.7418 136.558C62.2541 137.055 63.5724 137.766 64.7073 138.686L65.9665 137.132ZM61.3705 134.659C59.6596 134.089 57.8151 133.809 55.8447 133.809V135.809C57.6243 135.809 59.2528 136.061 60.738 136.557L61.3705 134.659ZM55.8447 133.809C52.2834 133.809 49.1335 134.696 46.4354 136.503L47.5481 138.165C49.8784 136.605 52.6304 135.809 55.8447 135.809V133.809ZM46.4403 136.499C43.7403 138.284 41.6752 140.877 40.2255 144.223L42.0606 145.018C43.3807 141.972 45.2148 139.707 47.5432 138.168L46.4403 136.499ZM40.2264 144.221C38.7722 147.554 38.0656 151.555 38.0656 156.19H40.0656C40.0656 151.749 40.7439 148.036 42.0596 145.021L40.2264 144.221ZM38.0656 156.19C38.0656 160.949 38.7709 165.015 40.2264 168.351L42.0596 167.552C40.7452 164.539 40.0656 160.764 40.0656 156.19H38.0656ZM40.2287 168.357C41.701 171.68 43.7787 174.242 46.4822 175.983L47.5652 174.302C45.2402 172.805 43.3975 170.572 42.0573 167.547L40.2287 168.357ZM46.4822 175.983C49.1745 177.717 52.275 178.572 55.7488 178.572V176.572C52.6176 176.572 49.9013 175.807 47.5652 174.302L46.4822 175.983ZM55.7488 178.572C57.691 178.572 59.5075 178.315 61.1912 177.791L60.5976 175.882C59.128 176.338 57.5141 176.572 55.7488 176.572V178.572ZM61.1876 177.793C62.8892 177.271 64.4131 176.506 65.7495 175.492L64.5408 173.899C63.4055 174.76 62.0957 175.422 60.6012 175.881L61.1876 177.793ZM65.7581 175.485C67.0944 174.449 68.2004 173.192 69.0732 171.722L67.3535 170.701C66.6069 171.958 65.6675 173.024 64.5321 173.905L65.7581 175.485ZM69.0673 171.732C69.9687 170.253 70.5837 168.579 70.9229 166.725L68.9555 166.365C68.6555 168.006 68.1199 169.443 67.3594 170.691L69.0673 171.732ZM69.9346 167.545L83.9332 167.609L83.9423 165.609L69.9437 165.545L69.9346 167.545ZM82.9449 166.49C82.5976 169.37 81.7294 172.153 80.3336 174.842L82.1087 175.763C83.6106 172.87 84.5534 169.857 84.9306 166.729L82.9449 166.49ZM80.3322 174.844C78.9626 177.502 77.1102 179.889 74.7659 182.007L76.1067 183.491C78.6205 181.22 80.6246 178.643 82.11 175.761L80.3322 174.844ZM74.7663 182.007C72.4593 184.089 69.692 185.754 66.4501 186.993L67.1641 188.861C70.6125 187.543 73.598 185.756 76.1064 183.492L74.7663 182.007ZM66.4533 186.991C63.2609 188.199 59.6231 188.812 55.5251 188.812V190.812C59.822 190.812 63.7055 190.169 67.1608 188.862L66.4533 186.991ZM55.5251 188.812C49.8438 188.812 44.7984 187.529 40.3625 184.982L39.3667 186.717C44.1354 189.454 49.5303 190.812 55.5251 190.812V188.812ZM40.3642 184.983C35.9575 182.442 32.4629 178.76 29.881 173.906L28.1153 174.845C30.86 180.005 34.6098 183.973 39.365 186.716L40.3642 184.983ZM29.8826 173.909C27.3335 169.078 26.0351 163.185 26.0351 156.19H24.0351C24.0351 163.428 25.3787 169.659 28.1137 174.842L29.8826 173.909ZM26.0351 156.19C26.0351 149.176 27.3541 143.275 29.9434 138.445L28.1807 137.5C25.4007 142.685 24.0351 148.929 24.0351 156.19H26.0351ZM29.9434 138.445C32.5458 133.592 36.0606 129.921 40.4873 127.4L39.4976 125.662C34.7198 128.383 30.9476 132.34 28.1807 137.5L29.9434 138.445ZM40.4903 127.398C44.9285 124.851 49.9318 123.568 55.5251 123.568V121.568C49.6127 121.568 44.261 122.928 39.4946 125.664L40.4903 127.398ZM55.5251 123.568C59.2234 123.568 62.6324 124.087 65.7595 125.116L66.3845 123.216C63.0343 122.114 59.4121 121.568 55.5251 121.568V123.568ZM65.7614 125.117C68.9115 126.146 71.6885 127.644 74.1021 129.608L75.3643 128.057C72.7495 125.929 69.7523 124.317 66.3826 123.216L65.7614 125.117ZM74.1061 129.611C76.5124 131.548 78.4727 133.925 79.9883 136.752L81.7509 135.806C80.113 132.752 77.9825 130.164 75.3603 128.053L74.1061 129.611ZM79.991 136.757C81.5203 139.57 82.51 142.812 82.9446 146.496L84.9309 146.261C84.4706 142.36 83.4149 138.868 81.7482 135.802L79.991 136.757ZM129.369 142.288L128.374 142.386L128.463 143.288H129.369V142.288ZM112.462 135.097L112.831 136.026L112.842 136.021L112.462 135.097ZM108.883 137.685L108.083 137.085L108.075 137.095L108.883 137.685ZM107.668 141.457L108.668 141.493L108.668 141.475V141.457H107.668ZM108.403 144.525L107.55 145.045L107.554 145.053L107.559 145.06L108.403 144.525ZM110.672 146.794L110.118 147.626L110.124 147.63L110.131 147.635L110.672 146.794ZM113.996 148.424L113.647 149.361L113.654 149.364L113.661 149.366L113.996 148.424ZM118.023 149.574L118.256 148.602L118.249 148.6L118.242 148.599L118.023 149.574ZM123.904 150.981L123.671 151.953L123.678 151.955L123.686 151.957L123.904 150.981ZM131.766 153.538L131.359 154.451L131.359 154.451L131.766 153.538ZM137.967 157.469L138.631 156.722L138.631 156.722L137.967 157.469ZM142.025 162.966L141.115 163.38L141.119 163.387L142.025 162.966ZM143.528 170.221L144.528 170.226L144.528 170.213L143.528 170.221ZM140.459 180.64L139.636 180.073L139.635 180.074L140.459 180.64ZM131.766 187.447L132.156 188.368L132.159 188.367L131.766 187.447ZM104.312 187.415L103.929 188.339L103.931 188.34L104.312 187.415ZM95.1718 180.224L94.3448 180.787L94.3492 180.793L95.1718 180.224ZM91.752 168.367V167.367H90.7292L90.7523 168.39L91.752 168.367ZM105.143 168.367L106.141 168.299L106.078 167.367H105.143V168.367ZM107.029 173.864L106.23 174.466L106.235 174.473L106.24 174.479L107.029 173.864ZM111.535 177.156L111.166 178.085L111.179 178.09L111.535 177.156ZM124.064 177.22L123.7 176.288L123.696 176.29L124.064 177.22ZM128.123 174.376L128.908 174.995L128.908 174.995L128.123 174.376ZM128.251 166.481L127.489 167.13L127.497 167.139L128.251 166.481ZM124.479 163.925L124.085 164.844L124.09 164.846L124.479 163.925ZM118.439 162.007L118.195 162.977L118.204 162.979L118.439 162.007ZM111.312 160.217L111.555 159.247L111.548 159.246L111.312 160.217ZM98.24 153.921L97.5737 154.667L97.5737 154.667L98.24 153.921ZM93.4779 142.383L94.4779 142.388L94.4779 142.378L93.4779 142.383ZM96.6419 131.996L95.8329 131.409L95.8302 131.412L96.6419 131.996ZM130.999 125.061L130.582 125.97L130.584 125.971L130.999 125.061ZM139.501 131.996L138.675 132.561L138.675 132.561L139.501 131.996ZM142.633 142.288V143.288H143.649L143.633 142.271L142.633 142.288ZM130.364 142.189C130.083 139.353 128.856 137.083 126.67 135.474L125.484 137.084C127.176 138.33 128.144 140.066 128.374 142.386L130.364 142.189ZM126.67 135.474C124.505 133.88 121.641 133.138 118.183 133.138V135.138C121.373 135.138 123.772 135.823 125.484 137.084L126.67 135.474ZM118.183 133.138C115.836 133.138 113.792 133.469 112.082 134.172L112.842 136.021C114.243 135.446 116.013 135.138 118.183 135.138V133.138ZM112.093 134.167C110.402 134.839 109.045 135.802 108.083 137.085L109.683 138.285C110.382 137.353 111.411 136.59 112.831 136.026L112.093 134.167ZM108.075 137.095C107.137 138.379 106.668 139.844 106.668 141.457H108.668C108.668 140.257 109.009 139.207 109.69 138.275L108.075 137.095ZM106.669 141.42C106.62 142.759 106.9 143.981 107.55 145.045L109.257 144.004C108.841 143.321 108.631 142.498 108.668 141.493L106.669 141.42ZM107.559 145.06C108.196 146.065 109.056 146.918 110.118 147.626L111.227 145.962C110.371 145.391 109.719 144.732 109.248 143.989L107.559 145.06ZM110.131 147.635C111.16 148.297 112.334 148.871 113.647 149.361L114.346 147.487C113.145 147.039 112.103 146.526 111.214 145.953L110.131 147.635ZM113.661 149.366C114.96 149.828 116.341 150.223 117.805 150.55L118.242 148.599C116.85 148.287 115.547 147.914 114.332 147.482L113.661 149.366ZM117.791 150.547L123.671 151.953L124.137 150.008L118.256 148.602L117.791 150.547ZM123.686 151.957C126.483 152.583 129.04 153.415 131.359 154.451L132.174 152.624C129.72 151.529 127.035 150.657 124.122 150.005L123.686 151.957ZM131.359 154.451C133.662 155.479 135.64 156.736 137.302 158.216L138.631 156.722C136.799 155.091 134.643 153.727 132.174 152.624L131.359 154.451ZM137.302 158.216C138.946 159.679 140.215 161.398 141.115 163.38L142.936 162.552C141.919 160.314 140.482 158.369 138.631 156.722L137.302 158.216ZM141.119 163.387C142.029 165.346 142.507 167.62 142.528 170.229L144.528 170.213C144.505 167.367 143.982 164.804 142.932 162.544L141.119 163.387ZM142.528 170.215C142.507 174.046 141.532 177.318 139.636 180.073L141.283 181.207C143.435 178.081 144.505 174.407 144.528 170.226L142.528 170.215ZM139.635 180.074C137.756 182.812 135.021 184.97 131.374 186.528L132.159 188.367C136.097 186.686 139.157 184.306 141.284 181.206L139.635 180.074ZM131.376 186.527C127.759 188.059 123.35 188.844 118.119 188.844V190.844C123.542 190.844 128.231 190.032 132.156 188.368L131.376 186.527ZM118.119 188.844C112.935 188.844 108.468 188.05 104.694 186.491L103.931 188.34C107.998 190.02 112.735 190.844 118.119 190.844V188.844ZM104.696 186.492C100.957 184.939 98.0695 182.658 95.9944 179.656L94.3492 180.793C96.6632 184.14 99.8696 186.653 103.929 188.339L104.696 186.492ZM95.9987 179.662C93.9555 176.657 92.8549 172.903 92.7518 168.344L90.7523 168.39C90.8622 173.249 92.0415 177.399 94.3448 180.787L95.9987 179.662ZM91.752 169.367H105.143V167.367H91.752V169.367ZM104.146 168.435C104.305 170.785 104.985 172.813 106.23 174.466L107.828 173.262C106.858 171.975 106.28 170.339 106.141 168.299L104.146 168.435ZM106.24 174.479C107.489 176.082 109.142 177.281 111.166 178.085L111.905 176.227C110.178 175.54 108.827 174.545 107.818 173.25L106.24 174.479ZM111.179 178.09C113.207 178.865 115.472 179.243 117.959 179.243V177.243C115.674 177.243 113.657 176.896 111.892 176.222L111.179 178.09ZM117.959 179.243C120.397 179.243 122.562 178.889 124.431 178.15L123.696 176.29C122.114 176.915 120.209 177.243 117.959 177.243V179.243ZM124.427 178.152C126.305 177.419 127.817 176.376 128.908 174.995L127.338 173.756C126.511 174.804 125.317 175.658 123.7 176.289L124.427 178.152ZM128.908 174.995C130.009 173.601 130.561 171.986 130.561 170.189H128.561C128.561 171.545 128.155 172.722 127.338 173.756L128.908 174.995ZM130.561 170.189C130.561 168.505 130.054 167.027 129.004 165.824L127.497 167.139C128.194 167.938 128.561 168.933 128.561 170.189H130.561ZM129.012 165.833C128.028 164.677 126.624 163.746 124.869 163.004L124.09 164.846C125.659 165.509 126.768 166.283 127.489 167.13L129.012 165.833ZM124.873 163.005C123.166 162.274 121.095 161.619 118.673 161.035L118.204 162.979C120.555 163.546 122.511 164.169 124.085 164.844L124.873 163.005ZM118.682 161.037L111.555 159.247L111.068 161.187L118.195 162.977L118.682 161.037ZM111.548 159.246C106.139 157.93 101.946 155.891 98.9062 153.175L97.5737 154.667C100.926 157.661 105.447 159.82 111.075 161.189L111.548 159.246ZM98.9062 153.175C95.9524 150.537 94.4576 146.979 94.4779 142.388L92.4779 142.379C92.4555 147.461 94.1354 151.595 97.5737 154.667L98.9062 153.175ZM94.4779 142.378C94.4576 138.607 95.4573 135.355 97.4537 132.58L95.8302 131.412C93.5653 134.561 92.4556 138.234 92.4779 142.389L94.4779 142.378ZM97.4509 132.584C99.4874 129.782 102.291 127.575 105.9 125.975L105.09 124.147C101.199 125.871 98.1005 128.288 95.833 131.409L97.4509 132.584ZM105.9 125.975C109.503 124.378 113.623 123.568 118.279 123.568V121.568C113.389 121.568 108.987 122.42 105.09 124.147L105.9 125.975ZM118.279 123.568C123.024 123.568 127.116 124.38 130.582 125.97L131.416 124.152C127.638 122.418 123.25 121.568 118.279 121.568V123.568ZM130.584 125.971C134.082 127.566 136.765 129.766 138.675 132.561L140.326 131.432C138.188 128.303 135.204 125.88 131.414 124.151L130.584 125.971ZM138.675 132.561C140.579 135.347 141.572 138.583 141.633 142.304L143.633 142.271C143.566 138.194 142.47 134.569 140.326 131.432L138.675 132.561ZM142.633 141.288H129.369V143.288H142.633V141.288Z" fill="#F70D0D"/>
<defs>
<linearGradient id="paint0_linear_5_7" x1="85.8955" y1="0.525833" x2="85.8955" y2="220.526" gradientUnits="userSpaceOnUse">
<stop stop-color="#FEB500"/>
<stop offset="0.401042" stop-color="#FD5B08"/>
<stop offset="0.848958" stop-color="#D3182C"/>
</linearGradient>
<linearGradient id="paint1_linear_5_7" x1="85.8955" y1="0.525833" x2="85.8955" y2="220.526" gradientUnits="userSpaceOnUse">
<stop offset="0.401042" stop-color="#FD5514"/>
<stop offset="1" stop-color="#C10A31"/>
</linearGradient>
<linearGradient id="paint2_linear_5_7" x1="19.8737" y1="63.9484" x2="19.8737" y2="139.35" gradientUnits="userSpaceOnUse">
<stop stop-color="#FFB01F"/>
<stop offset="0.578125" stop-color="#F75311"/>
</linearGradient>
</defs>
</svg>
