<svg xmlns="http://www.w3.org/2000/svg" width="1550" height="50" version="1.1">
	<rect x="0" y="0" width="1550" height="50" fill="rgb(74, 0, 143, 0.06)"/>
	<path fill="#4A008F" d="M 0 0 Q 25 50 50 25 Q 75 0 100 25 T 150 25 T 200 25 T 250 25 T 300 25 T 350 25 T 400 25 T 450 25 T 500 25 T 550 25 T 600 25 T 650 25 T 700 25 T 750 25 T 800 25 T 850 25 T 900 25 T 950 25 T 1000 25 T 1050 25 T 1100 25 T 1150 25 T 1200 25 T 1250 25 T 1300 25 T 1350 25 T 1400 25 T 1450 25 T 1500 25 Q 1525 50 1550 0" stroke="black"/>
</svg>
